<svg width="40" height="40" viewBox="0 0 40 40" fill="none" xmlns="http://www.w3.org/2000/svg">
<g id="bxs:quote-left">
<path id="Vector" d="M6.15157 10.486C8.4899 7.95102 12.0282 6.66602 16.6666 6.66602H18.3332V11.3643L16.9932 11.6327C14.7099 12.0893 13.1216 12.9877 12.2716 14.306C11.8281 15.0162 11.5765 15.8294 11.5416 16.666H16.6666C17.1086 16.666 17.5325 16.8416 17.8451 17.1542C18.1576 17.4667 18.3332 17.8907 18.3332 18.3327V29.9993C18.3332 31.8377 16.8382 33.3327 14.9999 33.3327H4.9999C4.55787 33.3327 4.13395 33.1571 3.82139 32.8445C3.50883 32.532 3.33323 32.108 3.33323 31.666V23.3327L3.33823 18.4677C3.32323 18.2827 3.00657 13.8993 6.15157 10.486ZM33.3332 33.3327H23.3332C22.8912 33.3327 22.4673 33.1571 22.1547 32.8445C21.8422 32.532 21.6666 32.108 21.6666 31.666V23.3327L21.6716 18.4677C21.6566 18.2827 21.3399 13.8993 24.4849 10.486C26.8232 7.95102 30.3616 6.66602 34.9999 6.66602H36.6666V11.3643L35.3266 11.6327C33.0432 12.0893 31.4549 12.9877 30.6049 14.306C30.1614 15.0162 29.9098 15.8294 29.8749 16.666H34.9999C35.4419 16.666 35.8659 16.8416 36.1784 17.1542C36.491 17.4667 36.6666 17.8907 36.6666 18.3327V29.9993C36.6666 31.8377 35.1716 33.3327 33.3332 33.3327Z" fill="white"/>
</g>
</svg>
