<svg width="35" height="35" viewBox="0 0 35 35" fill="none" xmlns="http://www.w3.org/2000/svg">
<g id="ci:location">
<path id="Vector" d="M17.4998 30.6243C15.6579 29.0531 13.9505 27.3306 12.3957 25.4749C10.0623 22.688 7.29151 18.5376 7.29151 14.5826C7.29049 12.5627 7.8887 10.588 9.01043 8.90826C10.1322 7.22852 11.727 5.9193 13.5931 5.1463C15.4591 4.37329 17.5126 4.17124 19.4935 4.56573C21.4745 4.96021 23.2939 5.93348 24.7215 7.36238C25.672 8.30864 26.4253 9.434 26.938 10.6733C27.4507 11.9127 27.7124 13.2414 27.7082 14.5826C27.7082 18.5376 24.9373 22.688 22.604 25.4749C21.0491 27.3306 19.3418 29.0531 17.4998 30.6243ZM17.4998 10.2076C16.3395 10.2076 15.2267 10.6685 14.4062 11.489C13.5858 12.3095 13.1248 13.4223 13.1248 14.5826C13.1248 15.7429 13.5858 16.8557 14.4062 17.6762C15.2267 18.4967 16.3395 18.9576 17.4998 18.9576C18.6602 18.9576 19.773 18.4967 20.5934 17.6762C21.4139 16.8557 21.8748 15.7429 21.8748 14.5826C21.8748 13.4223 21.4139 12.3095 20.5934 11.489C19.773 10.6685 18.6602 10.2076 17.4998 10.2076Z" fill="#FF3F3F"/>
</g>
</svg>
