<svg width="19" height="20" viewBox="0 0 19 20" fill="none" xmlns="http://www.w3.org/2000/svg">
<g id="cil:bathroom" clip-path="url(#clip0_521_2803)">
<path id="Vector" d="M17.1958 10.7125H3.41204V4.25137C3.41138 4.00805 3.45898 3.76701 3.5521 3.54221C3.64522 3.31741 3.782 3.11332 3.95453 2.94174L3.96889 2.92738C4.23927 2.65739 4.58642 2.47746 4.9629 2.41217C5.33939 2.34689 5.72685 2.39942 6.07235 2.56261C5.74605 3.10513 5.61043 3.74114 5.68703 4.36957C5.76363 4.998 6.04806 5.58281 6.49512 6.03106L6.88821 6.42415L6.16467 7.14773L6.97684 7.9599L7.70038 7.23635L11.7095 3.22732L12.433 2.50378L11.6208 1.69158L10.8972 2.41512L10.5042 2.02203C10.0335 1.55271 9.41314 1.2634 8.7511 1.20452C8.08906 1.14565 7.42736 1.32093 6.88129 1.69983C6.30546 1.33618 5.62307 1.17919 4.94623 1.25465C4.26938 1.33011 3.63832 1.63353 3.15672 2.11507L3.14236 2.12943C2.86283 2.40743 2.64121 2.73812 2.49033 3.10236C2.33946 3.46659 2.26232 3.85713 2.26339 4.25137V10.7125H1.11475V11.8612H2.26339V12.9632C2.26337 13.0557 2.2783 13.1477 2.30762 13.2356L3.37615 16.441C3.43317 16.6126 3.54282 16.7619 3.68952 16.8677C3.83621 16.9734 4.0125 17.0302 4.19334 17.0301H4.65639L4.23763 18.4659H5.43413L5.85292 17.0301H13.3227L13.7535 18.4659H14.9524L14.5216 17.0301H15.2657C15.4466 17.0303 15.6229 16.9734 15.7696 16.8677C15.9164 16.7619 16.026 16.6126 16.0831 16.441L17.1515 13.2356C17.1809 13.1477 17.1958 13.0558 17.1958 12.9632V11.8612H18.3445V10.7125H17.1958ZM7.3074 2.83423C7.62385 2.51847 8.05264 2.34113 8.49968 2.34113C8.94672 2.34113 9.37551 2.51847 9.69196 2.83423L10.085 3.22732L7.70049 5.61181L7.3074 5.21879C6.99165 4.90233 6.81433 4.47355 6.81433 4.02651C6.81433 3.57947 6.99165 3.15069 7.3074 2.83423ZM16.0472 12.9165L15.0589 15.8814H4.40031L3.41204 12.9165V11.8612H16.0472V12.9165Z" fill="black"/>
</g>
<defs>
<clipPath id="clip0_521_2803">
<rect width="18.3784" height="18.3784" fill="white" transform="translate(0.540527 0.662109)"/>
</clipPath>
</defs>
</svg>
