<svg width="20" height="20" viewBox="0 0 20 20" fill="none" xmlns="http://www.w3.org/2000/svg">
<g id="fluent:bed-20-regular">
<path id="Vector" d="M13.1081 3.41797C13.6913 3.41788 14.2528 3.63964 14.6786 4.03828C15.1043 4.43691 15.3625 4.98257 15.4008 5.56456L15.4054 5.71527V8.05851C15.8978 8.15921 16.3436 8.41854 16.6745 8.79679C17.0055 9.17503 17.2033 9.65132 17.2377 10.1527L17.2432 10.3099V15.8234C17.2434 15.9382 17.2007 16.0489 17.1233 16.1338C17.0459 16.2186 16.9396 16.2714 16.8253 16.2818C16.7109 16.2922 16.5969 16.2594 16.5055 16.1898C16.4141 16.1203 16.3521 16.0191 16.3317 15.9061L16.3243 15.8234V13.5261H3.45945V15.8234C3.45966 15.9382 3.41687 16.0489 3.33952 16.1338C3.26217 16.2186 3.15585 16.2714 3.0415 16.2818C2.92716 16.2922 2.81307 16.2594 2.72171 16.1898C2.63035 16.1203 2.56833 16.0191 2.54788 15.9061L2.54053 15.8234V10.3099C2.54042 9.78026 2.72329 9.26689 3.0582 8.85664C3.3931 8.44638 3.85947 8.16443 4.37837 8.05851V5.71527C4.37828 5.13201 4.60004 4.57056 4.99867 4.14479C5.39731 3.71903 5.94296 3.46082 6.52496 3.42256L6.67566 3.41797H13.1081ZM14.9459 8.93148H4.83782C4.49532 8.93148 4.16508 9.05899 3.91146 9.28917C3.65783 9.51935 3.49899 9.83572 3.46588 10.1766L3.45945 10.3099V12.6072H16.3243V10.3099C16.3243 9.96736 16.1968 9.63712 15.9666 9.38349C15.7364 9.12987 15.4201 8.97102 15.0792 8.93791L14.9459 8.93148ZM13.1081 4.33689H6.67566C6.33301 4.3369 6.00265 4.46454 5.74901 4.69492C5.49536 4.92529 5.33661 5.24188 5.30372 5.58294L5.29728 5.71527V8.01256H6.2162V7.5531C6.2162 7.43125 6.26461 7.31438 6.35078 7.22822C6.43694 7.14205 6.55381 7.09364 6.67566 7.09364H8.97296C9.09482 7.09364 9.21168 7.14205 9.29785 7.22822C9.38401 7.31438 9.43242 7.43125 9.43242 7.5531V8.01256H10.3513V7.5531C10.3513 7.43125 10.3997 7.31438 10.4859 7.22822C10.5721 7.14205 10.6889 7.09364 10.8108 7.09364H13.1081C13.23 7.09364 13.3468 7.14205 13.433 7.22822C13.5191 7.31438 13.5676 7.43125 13.5676 7.5531V8.01256H14.4865V5.71527C14.4865 5.37276 14.359 5.04252 14.1288 4.7889C13.8986 4.53527 13.5822 4.37643 13.2413 4.34332L13.1081 4.33689Z" fill="black"/>
</g>
</svg>
