<svg width="137" height="46" viewBox="0 0 137 46" fill="none" xmlns="http://www.w3.org/2000/svg">
<g id="Google Grey">
<path id="Shape" opacity="0.5" d="M18.3552 35.2181C8.8782 35.2181 0.911621 27.5041 0.911621 18.0271C0.911621 8.5501 8.8782 0.83605 18.3552 0.83605C22.7599 0.766132 27.0072 2.47328 30.1383 5.57216L26.803 8.90746C24.5285 6.72357 21.4843 5.52507 18.3314 5.57216C11.5254 5.70507 6.07757 11.2604 6.07757 18.0676C6.07757 24.8748 11.5254 30.4301 18.3314 30.563C22.8197 30.563 25.3736 28.762 27.0127 27.1229C28.3563 25.7793 29.233 23.8543 29.5713 21.2099H18.4028V16.4833H34.1645C34.3429 17.4513 34.4275 18.4342 34.417 19.4184C34.417 22.9395 33.4641 27.2992 30.3479 30.4058C27.3319 33.541 23.4725 35.2181 18.3552 35.2181Z" fill="white"/>
<path id="Shape_2" opacity="0.5" d="M58.0688 24.1457C58.0726 28.6272 55.376 32.6695 51.2368 34.3872C47.0976 36.1048 42.3312 35.1594 39.1609 31.9919C35.9907 28.8244 35.0412 24.0588 36.7553 19.9181C38.4694 15.7774 42.5094 13.0773 46.9908 13.0773C49.9401 13.0346 52.7813 14.1867 54.8679 16.2714C56.9545 18.3562 58.109 21.1964 58.0688 24.1457ZM53.2183 24.1457C53.2183 20.1624 50.3357 17.437 46.9908 17.437C43.646 17.437 40.7634 20.1624 40.7634 24.1457C40.7634 28.129 43.646 30.8544 46.9908 30.8544C50.3357 30.8544 53.2183 28.0909 53.2183 24.1457Z" fill="white"/>
<path id="Shape_3" opacity="0.5" d="M82.4025 24.1456C82.4199 28.6436 79.7237 32.7083 75.5731 34.4417C71.4225 36.175 66.6363 35.235 63.4496 32.0606C60.2629 28.8862 59.3044 24.1037 61.0217 19.9464C62.739 15.7891 66.7932 13.0773 71.2912 13.0772C74.2431 13.036 77.0868 14.1875 79.1783 16.271C81.2698 18.3544 82.4323 21.1936 82.4025 24.1456ZM77.5377 24.1456C77.5377 20.1624 74.6456 17.4369 71.2912 17.4369C67.9369 17.4369 65.0447 20.1624 65.0447 24.1456C65.0447 28.1289 67.9369 30.8543 71.2912 30.8543C74.6456 30.8543 77.5377 28.0908 77.5377 24.1456Z" fill="white"/>
<path id="Shape_4" opacity="0.5" d="M105.597 13.749V33.6368C105.597 41.8131 100.776 45.1674 95.0722 45.1674C90.7748 45.1886 86.8941 42.6009 85.2617 38.6255L89.4975 36.8625C90.2503 38.6636 92.099 40.803 95.0722 40.803C98.722 40.803 100.985 38.5397 100.985 34.3039V32.6839H100.818C99.3402 34.3382 97.209 35.2583 94.9912 35.1997C89.4546 35.1997 84.3945 30.3778 84.3945 24.1741C84.3945 17.9705 89.4546 13.0629 94.9912 13.0629C97.1983 13.0087 99.3217 13.9081 100.818 15.531H100.985V13.749H105.597ZM101.309 24.1884C101.309 20.2909 98.7077 17.4369 95.3962 17.4369C92.0848 17.4369 89.2307 20.2957 89.2307 24.1884C89.2307 28.0812 92.0419 30.859 95.3962 30.859C98.7506 30.859 101.319 28.0478 101.319 24.1884H101.309Z" fill="white"/>
<path id="Shape_5" opacity="0.5" d="M113.416 2.14648V34.5465H108.58V2.14648H113.416Z" fill="white"/>
<path id="Shape_6" opacity="0.5" d="M132.031 27.7954L135.805 30.3112C133.752 33.3947 130.285 35.2389 126.581 35.2188C120.291 35.2188 115.593 30.3541 115.593 24.1504C115.593 17.5656 120.329 13.082 126.033 13.082C131.736 13.082 134.609 17.6514 135.51 20.1243L136.015 21.3821L121.216 27.5048C122.35 29.7251 124.108 30.8401 126.581 30.8401C129.054 30.8401 130.778 29.6394 132.031 27.7954ZM120.415 23.8121L130.311 19.705C129.768 18.3232 128.129 17.356 126.204 17.356C124.576 17.4306 123.047 18.1568 121.959 19.3711C120.872 20.5854 120.319 22.1858 120.425 23.8121H120.415Z" fill="white"/>
</g>
</svg>
