<svg width="19" height="20" viewBox="0 0 19 20" fill="none" xmlns="http://www.w3.org/2000/svg">
<g id="system-uicons:scale">
<g id="Group">
<path id="Vector" d="M15.8831 7.22525V3.72461M15.8831 3.72461H12.3825M15.8831 3.72461L8.88184 10.7259M8.88184 7.22525V10.7259M8.88184 10.7259H12.3825" stroke="black" stroke-width="1.1027" stroke-linecap="round" stroke-linejoin="round"/>
<path id="Vector_2" d="M10.6321 3.72461H5.38118C4.91697 3.72461 4.47177 3.90902 4.14352 4.23727C3.81527 4.56552 3.63086 5.01072 3.63086 5.47493V14.2265C3.63086 14.6908 3.81527 15.136 4.14352 15.4642C4.47177 15.7925 4.91697 15.9769 5.38118 15.9769H14.1328C14.597 15.9769 15.0422 15.7925 15.3705 15.4642C15.6987 15.136 15.8831 14.6908 15.8831 14.2265V8.97557" stroke="black" stroke-width="1.1027" stroke-linecap="round" stroke-linejoin="round"/>
</g>
</g>
</svg>
